<mxfile host="Electron" modified="2023-10-20T20:33:14.946Z" agent="Mozilla/5.0 (Windows NT 10.0; Win64; x64) AppleWebKit/537.36 (KHTML, like Gecko) draw.io/22.0.3 Chrome/114.0.5735.289 Electron/25.8.4 Safari/537.36" etag="DORjKuXWxu4T3TY_x_gh" version="22.0.3" type="device">
  <diagram id="C5RBs43oDa-KdzZeNtuy" name="Page-1">
    <mxGraphModel dx="785" dy="827" grid="1" gridSize="10" guides="1" tooltips="1" connect="1" arrows="1" fold="1" page="1" pageScale="1" pageWidth="827" pageHeight="1169" math="0" shadow="0">
      <root>
        <mxCell id="WIyWlLk6GJQsqaUBKTNV-0" />
        <mxCell id="WIyWlLk6GJQsqaUBKTNV-1" parent="WIyWlLk6GJQsqaUBKTNV-0" />
        <mxCell id="gFW3YUw3t3Eu43AXeSie-1" value="" style="edgeStyle=orthogonalEdgeStyle;rounded=0;orthogonalLoop=1;jettySize=auto;html=1;" parent="WIyWlLk6GJQsqaUBKTNV-1" source="uvkjri6FY9MWjZu6di9B-1" target="gFW3YUw3t3Eu43AXeSie-0" edge="1">
          <mxGeometry relative="1" as="geometry" />
        </mxCell>
        <mxCell id="uvkjri6FY9MWjZu6di9B-1" value="" style="strokeWidth=2;html=1;shape=mxgraph.flowchart.start_2;whiteSpace=wrap;" parent="WIyWlLk6GJQsqaUBKTNV-1" vertex="1">
          <mxGeometry x="120" y="20" width="30" height="30" as="geometry" />
        </mxCell>
        <mxCell id="uvkjri6FY9MWjZu6di9B-25" style="edgeStyle=orthogonalEdgeStyle;rounded=0;orthogonalLoop=1;jettySize=auto;html=1;" parent="WIyWlLk6GJQsqaUBKTNV-1" edge="1">
          <mxGeometry relative="1" as="geometry" />
        </mxCell>
        <mxCell id="gFW3YUw3t3Eu43AXeSie-3" style="edgeStyle=orthogonalEdgeStyle;rounded=0;orthogonalLoop=1;jettySize=auto;html=1;entryX=0.5;entryY=0;entryDx=0;entryDy=0;" parent="WIyWlLk6GJQsqaUBKTNV-1" source="gFW3YUw3t3Eu43AXeSie-0" target="gFW3YUw3t3Eu43AXeSie-2" edge="1">
          <mxGeometry relative="1" as="geometry" />
        </mxCell>
        <mxCell id="gFW3YUw3t3Eu43AXeSie-0" value="inteiro matchingElements, i, j, num&lt;div&gt;&lt;div&gt;inteiro sequencia1 [5]&lt;/div&gt;&lt;div&gt;inteiro sequencia2 [5]&lt;/div&gt;&lt;/div&gt;" style="whiteSpace=wrap;html=1;strokeWidth=2;" parent="WIyWlLk6GJQsqaUBKTNV-1" vertex="1">
          <mxGeometry x="27.5" y="80" width="215" height="100" as="geometry" />
        </mxCell>
        <mxCell id="vmr1aMFzi46B_T9mpgOL-71" value="" style="edgeStyle=orthogonalEdgeStyle;rounded=0;orthogonalLoop=1;jettySize=auto;html=1;" parent="WIyWlLk6GJQsqaUBKTNV-1" source="gFW3YUw3t3Eu43AXeSie-2" target="vmr1aMFzi46B_T9mpgOL-70" edge="1">
          <mxGeometry relative="1" as="geometry" />
        </mxCell>
        <mxCell id="vmr1aMFzi46B_T9mpgOL-87" style="edgeStyle=orthogonalEdgeStyle;rounded=0;orthogonalLoop=1;jettySize=auto;html=1;entryX=0;entryY=0.5;entryDx=0;entryDy=0;" parent="WIyWlLk6GJQsqaUBKTNV-1" source="gFW3YUw3t3Eu43AXeSie-2" target="vmr1aMFzi46B_T9mpgOL-79" edge="1">
          <mxGeometry relative="1" as="geometry" />
        </mxCell>
        <mxCell id="gFW3YUw3t3Eu43AXeSie-2" value="" style="shape=hexagon;perimeter=hexagonPerimeter2;whiteSpace=wrap;html=1;fixedSize=1;" parent="WIyWlLk6GJQsqaUBKTNV-1" vertex="1">
          <mxGeometry x="63" y="206" width="145" height="80" as="geometry" />
        </mxCell>
        <mxCell id="gFW3YUw3t3Eu43AXeSie-4" value="idx = 0; idx &lt;= 4; idx++" style="text;whiteSpace=wrap;" parent="WIyWlLk6GJQsqaUBKTNV-1" vertex="1">
          <mxGeometry x="75" y="232" width="150" height="40" as="geometry" />
        </mxCell>
        <mxCell id="vmr1aMFzi46B_T9mpgOL-73" style="edgeStyle=orthogonalEdgeStyle;rounded=0;orthogonalLoop=1;jettySize=auto;html=1;" parent="WIyWlLk6GJQsqaUBKTNV-1" source="vmr1aMFzi46B_T9mpgOL-70" target="vmr1aMFzi46B_T9mpgOL-72" edge="1">
          <mxGeometry relative="1" as="geometry" />
        </mxCell>
        <mxCell id="vmr1aMFzi46B_T9mpgOL-70" value="Insira mais um num." style="shape=document;whiteSpace=wrap;html=1;boundedLbl=1;" parent="WIyWlLk6GJQsqaUBKTNV-1" vertex="1">
          <mxGeometry x="75" y="320" width="120" height="50" as="geometry" />
        </mxCell>
        <mxCell id="vmr1aMFzi46B_T9mpgOL-75" value="" style="edgeStyle=orthogonalEdgeStyle;rounded=0;orthogonalLoop=1;jettySize=auto;html=1;" parent="WIyWlLk6GJQsqaUBKTNV-1" source="vmr1aMFzi46B_T9mpgOL-72" target="vmr1aMFzi46B_T9mpgOL-74" edge="1">
          <mxGeometry relative="1" as="geometry" />
        </mxCell>
        <mxCell id="vmr1aMFzi46B_T9mpgOL-72" value="sequencia1[i]&amp;nbsp;" style="html=1;strokeWidth=2;shape=manualInput;whiteSpace=wrap;rounded=1;size=26;arcSize=11;" parent="WIyWlLk6GJQsqaUBKTNV-1" vertex="1">
          <mxGeometry x="85.5" y="400" width="100" height="60" as="geometry" />
        </mxCell>
        <mxCell id="vmr1aMFzi46B_T9mpgOL-77" style="edgeStyle=orthogonalEdgeStyle;rounded=0;orthogonalLoop=1;jettySize=auto;html=1;entryX=0;entryY=0.5;entryDx=0;entryDy=0;" parent="WIyWlLk6GJQsqaUBKTNV-1" source="vmr1aMFzi46B_T9mpgOL-74" target="gFW3YUw3t3Eu43AXeSie-2" edge="1">
          <mxGeometry relative="1" as="geometry">
            <Array as="points">
              <mxPoint x="8" y="520" />
              <mxPoint x="8" y="250" />
              <mxPoint x="28" y="250" />
              <mxPoint x="28" y="246" />
            </Array>
          </mxGeometry>
        </mxCell>
        <mxCell id="vmr1aMFzi46B_T9mpgOL-74" value="" style="ellipse;whiteSpace=wrap;html=1;strokeWidth=2;rounded=1;arcSize=11;" parent="WIyWlLk6GJQsqaUBKTNV-1" vertex="1">
          <mxGeometry x="112.75" y="500" width="44.5" height="40" as="geometry" />
        </mxCell>
        <mxCell id="vmr1aMFzi46B_T9mpgOL-78" value="" style="edgeStyle=orthogonalEdgeStyle;rounded=0;orthogonalLoop=1;jettySize=auto;html=1;" parent="WIyWlLk6GJQsqaUBKTNV-1" source="vmr1aMFzi46B_T9mpgOL-79" target="vmr1aMFzi46B_T9mpgOL-82" edge="1">
          <mxGeometry relative="1" as="geometry" />
        </mxCell>
        <mxCell id="vmr1aMFzi46B_T9mpgOL-96" style="edgeStyle=orthogonalEdgeStyle;rounded=0;orthogonalLoop=1;jettySize=auto;html=1;entryX=0;entryY=0.5;entryDx=0;entryDy=0;" parent="WIyWlLk6GJQsqaUBKTNV-1" source="vmr1aMFzi46B_T9mpgOL-79" target="vmr1aMFzi46B_T9mpgOL-89" edge="1">
          <mxGeometry relative="1" as="geometry" />
        </mxCell>
        <mxCell id="vmr1aMFzi46B_T9mpgOL-79" value="" style="shape=hexagon;perimeter=hexagonPerimeter2;whiteSpace=wrap;html=1;fixedSize=1;" parent="WIyWlLk6GJQsqaUBKTNV-1" vertex="1">
          <mxGeometry x="260" y="206" width="145" height="80" as="geometry" />
        </mxCell>
        <mxCell id="vmr1aMFzi46B_T9mpgOL-80" value="idx = 0; idx &lt;= 4; idx++" style="text;whiteSpace=wrap;" parent="WIyWlLk6GJQsqaUBKTNV-1" vertex="1">
          <mxGeometry x="272" y="232" width="150" height="40" as="geometry" />
        </mxCell>
        <mxCell id="vmr1aMFzi46B_T9mpgOL-81" style="edgeStyle=orthogonalEdgeStyle;rounded=0;orthogonalLoop=1;jettySize=auto;html=1;" parent="WIyWlLk6GJQsqaUBKTNV-1" source="vmr1aMFzi46B_T9mpgOL-82" target="vmr1aMFzi46B_T9mpgOL-84" edge="1">
          <mxGeometry relative="1" as="geometry" />
        </mxCell>
        <mxCell id="vmr1aMFzi46B_T9mpgOL-82" value="Insira mais um num." style="shape=document;whiteSpace=wrap;html=1;boundedLbl=1;" parent="WIyWlLk6GJQsqaUBKTNV-1" vertex="1">
          <mxGeometry x="272" y="320" width="120" height="50" as="geometry" />
        </mxCell>
        <mxCell id="vmr1aMFzi46B_T9mpgOL-83" value="" style="edgeStyle=orthogonalEdgeStyle;rounded=0;orthogonalLoop=1;jettySize=auto;html=1;" parent="WIyWlLk6GJQsqaUBKTNV-1" source="vmr1aMFzi46B_T9mpgOL-84" target="vmr1aMFzi46B_T9mpgOL-85" edge="1">
          <mxGeometry relative="1" as="geometry" />
        </mxCell>
        <mxCell id="vmr1aMFzi46B_T9mpgOL-84" value="sequencia2[i]&amp;nbsp;" style="html=1;strokeWidth=2;shape=manualInput;whiteSpace=wrap;rounded=1;size=26;arcSize=11;" parent="WIyWlLk6GJQsqaUBKTNV-1" vertex="1">
          <mxGeometry x="282.5" y="400" width="100" height="60" as="geometry" />
        </mxCell>
        <mxCell id="vmr1aMFzi46B_T9mpgOL-97" style="edgeStyle=orthogonalEdgeStyle;rounded=0;orthogonalLoop=1;jettySize=auto;html=1;entryX=0;entryY=0.5;entryDx=0;entryDy=0;" parent="WIyWlLk6GJQsqaUBKTNV-1" source="vmr1aMFzi46B_T9mpgOL-85" target="vmr1aMFzi46B_T9mpgOL-79" edge="1">
          <mxGeometry relative="1" as="geometry">
            <Array as="points">
              <mxPoint x="240" y="520" />
              <mxPoint x="240" y="246" />
            </Array>
          </mxGeometry>
        </mxCell>
        <mxCell id="vmr1aMFzi46B_T9mpgOL-85" value="" style="ellipse;whiteSpace=wrap;html=1;strokeWidth=2;rounded=1;arcSize=11;" parent="WIyWlLk6GJQsqaUBKTNV-1" vertex="1">
          <mxGeometry x="309.75" y="500" width="44.5" height="40" as="geometry" />
        </mxCell>
        <mxCell id="vmr1aMFzi46B_T9mpgOL-89" value="" style="shape=hexagon;perimeter=hexagonPerimeter2;whiteSpace=wrap;html=1;fixedSize=1;" parent="WIyWlLk6GJQsqaUBKTNV-1" vertex="1">
          <mxGeometry x="450" y="206" width="145" height="80" as="geometry" />
        </mxCell>
        <mxCell id="vmr1aMFzi46B_T9mpgOL-115" style="edgeStyle=orthogonalEdgeStyle;rounded=0;orthogonalLoop=1;jettySize=auto;html=1;entryX=0;entryY=0.5;entryDx=0;entryDy=0;" parent="WIyWlLk6GJQsqaUBKTNV-1" target="vmr1aMFzi46B_T9mpgOL-109" edge="1">
          <mxGeometry relative="1" as="geometry">
            <mxPoint x="600" y="252" as="sourcePoint" />
          </mxGeometry>
        </mxCell>
        <mxCell id="vmr1aMFzi46B_T9mpgOL-90" value="idx = 0; idx &lt;= 4; idx++" style="text;whiteSpace=wrap;" parent="WIyWlLk6GJQsqaUBKTNV-1" vertex="1">
          <mxGeometry x="460" y="233" width="150" height="40" as="geometry" />
        </mxCell>
        <mxCell id="vmr1aMFzi46B_T9mpgOL-98" style="edgeStyle=orthogonalEdgeStyle;rounded=0;orthogonalLoop=1;jettySize=auto;html=1;entryX=0;entryY=0.5;entryDx=0;entryDy=0;" parent="WIyWlLk6GJQsqaUBKTNV-1" source="vmr1aMFzi46B_T9mpgOL-95" target="vmr1aMFzi46B_T9mpgOL-89" edge="1">
          <mxGeometry relative="1" as="geometry">
            <Array as="points">
              <mxPoint x="430" y="664" />
              <mxPoint x="430" y="246" />
            </Array>
          </mxGeometry>
        </mxCell>
        <mxCell id="mL4fHb_OxI4WLivdcz1l-1" value="" style="edgeStyle=orthogonalEdgeStyle;rounded=0;orthogonalLoop=1;jettySize=auto;html=1;" edge="1" parent="WIyWlLk6GJQsqaUBKTNV-1" source="vmr1aMFzi46B_T9mpgOL-95" target="mL4fHb_OxI4WLivdcz1l-0">
          <mxGeometry relative="1" as="geometry" />
        </mxCell>
        <mxCell id="vmr1aMFzi46B_T9mpgOL-95" value="" style="ellipse;whiteSpace=wrap;html=1;strokeWidth=2;rounded=1;arcSize=11;" parent="WIyWlLk6GJQsqaUBKTNV-1" vertex="1">
          <mxGeometry x="597" y="644" width="44.5" height="40" as="geometry" />
        </mxCell>
        <mxCell id="vmr1aMFzi46B_T9mpgOL-104" value="" style="edgeStyle=orthogonalEdgeStyle;rounded=0;orthogonalLoop=1;jettySize=auto;html=1;" parent="WIyWlLk6GJQsqaUBKTNV-1" source="vmr1aMFzi46B_T9mpgOL-99" target="vmr1aMFzi46B_T9mpgOL-103" edge="1">
          <mxGeometry relative="1" as="geometry" />
        </mxCell>
        <mxCell id="vmr1aMFzi46B_T9mpgOL-99" value="sequencia1[j] == sequencia2[i]" style="rhombus;whiteSpace=wrap;html=1;" parent="WIyWlLk6GJQsqaUBKTNV-1" vertex="1">
          <mxGeometry x="550" y="400" width="108.5" height="121" as="geometry" />
        </mxCell>
        <mxCell id="vmr1aMFzi46B_T9mpgOL-108" style="edgeStyle=orthogonalEdgeStyle;rounded=0;orthogonalLoop=1;jettySize=auto;html=1;entryX=0.5;entryY=0;entryDx=0;entryDy=0;" parent="WIyWlLk6GJQsqaUBKTNV-1" source="vmr1aMFzi46B_T9mpgOL-103" target="vmr1aMFzi46B_T9mpgOL-95" edge="1">
          <mxGeometry relative="1" as="geometry" />
        </mxCell>
        <mxCell id="vmr1aMFzi46B_T9mpgOL-103" value="matchingElements &amp;lt;- matchingElements + 1" style="rounded=1;whiteSpace=wrap;html=1;" parent="WIyWlLk6GJQsqaUBKTNV-1" vertex="1">
          <mxGeometry x="558.5" y="546" width="120" height="60" as="geometry" />
        </mxCell>
        <mxCell id="vmr1aMFzi46B_T9mpgOL-113" value="" style="edgeStyle=orthogonalEdgeStyle;rounded=0;orthogonalLoop=1;jettySize=auto;html=1;exitX=0.625;exitY=1;exitDx=0;exitDy=0;entryX=0.5;entryY=0;entryDx=0;entryDy=0;" parent="WIyWlLk6GJQsqaUBKTNV-1" source="vmr1aMFzi46B_T9mpgOL-109" target="vmr1aMFzi46B_T9mpgOL-99" edge="1">
          <mxGeometry relative="1" as="geometry">
            <mxPoint x="707" y="253" as="sourcePoint" />
            <mxPoint x="530" y="441" as="targetPoint" />
            <Array as="points">
              <mxPoint x="780" y="292" />
              <mxPoint x="780" y="350" />
              <mxPoint x="604" y="350" />
            </Array>
          </mxGeometry>
        </mxCell>
        <mxCell id="vmr1aMFzi46B_T9mpgOL-109" value="" style="shape=hexagon;perimeter=hexagonPerimeter2;whiteSpace=wrap;html=1;fixedSize=1;" parent="WIyWlLk6GJQsqaUBKTNV-1" vertex="1">
          <mxGeometry x="697" y="212" width="145" height="80" as="geometry" />
        </mxCell>
        <mxCell id="vmr1aMFzi46B_T9mpgOL-110" value="idx = 0; idx &lt;= 4; idx++" style="text;whiteSpace=wrap;" parent="WIyWlLk6GJQsqaUBKTNV-1" vertex="1">
          <mxGeometry x="709" y="232" width="150" height="40" as="geometry" />
        </mxCell>
        <mxCell id="mL4fHb_OxI4WLivdcz1l-0" value="matchingElements, &quot; elementos coincidem nas duas sequencias!&quot;" style="shape=document;whiteSpace=wrap;html=1;boundedLbl=1;strokeWidth=2;rounded=1;arcSize=11;" vertex="1" parent="WIyWlLk6GJQsqaUBKTNV-1">
          <mxGeometry x="559.25" y="744" width="150.75" height="80" as="geometry" />
        </mxCell>
      </root>
    </mxGraphModel>
  </diagram>
</mxfile>
